<?xml version="1.0" encoding="UTF-8" standalone="no"?>
<svg
   viewBox="0 0 512 512"
   version="1.1"
   id="svg1"
   sodipodi:docname="burger-solid.svg"
   inkscape:version="1.3.2 (091e20e, 2023-11-25, custom)"
   xmlns:inkscape="http://www.inkscape.org/namespaces/inkscape"
   xmlns:sodipodi="http://sodipodi.sourceforge.net/DTD/sodipodi-0.dtd"
   xmlns="http://www.w3.org/2000/svg"
   xmlns:svg="http://www.w3.org/2000/svg">
  <defs
     id="defs1">
    <rect
       x="52.140297"
       y="74.846555"
       width="317.04664"
       height="428.05502"
       id="rect2" />
  </defs>
  <sodipodi:namedview
     id="namedview1"
     pagecolor="#ffffff"
     bordercolor="#000000"
     borderopacity="0.25"
     inkscape:showpageshadow="2"
     inkscape:pageopacity="0.0"
     inkscape:pagecheckerboard="0"
     inkscape:deskcolor="#d1d1d1"
     inkscape:zoom="0.84082031"
     inkscape:cx="594.06272"
     inkscape:cy="441.83043"
     inkscape:window-width="1920"
     inkscape:window-height="1057"
     inkscape:window-x="-8"
     inkscape:window-y="-8"
     inkscape:window-maximized="1"
     inkscape:current-layer="svg1" />
  <!--!Font Awesome Free 6.5.1 by @fontawesome - https://fontawesome.com License - https://fontawesome.com/license/free Copyright 2024 Fonticons, Inc.-->
  <path
     d="M 61.1,224 C 45,224 32,211 32,194.9 32,193 32.2,191.2 32.6,189.3 37.9,168.3 78.8,32 256,32 c 177.2,0 218.1,136.3 223.4,157.3 0.5,1.9 0.6,3.7 0.6,5.6 0,16.1 -13,29.1 -29.1,29.1 z M 384,144 c 8.83656,0 15.99999,-7.16344 15.99999,-16 0,-8.83656 -7.16343,-16 -15.99999,-16 -8.83656,0 -15.99999,7.16344 -15.99999,16 0,8.83656 7.16343,16 15.99999,16 z M 272,96 c 0,-8.836562 -7.16344,-15.999993 -16,-15.999993 -8.83656,0 -16,7.163431 -16,15.999993 0,8.83656 7.16344,15.99999 16,15.99999 8.83656,0 16,-7.16343 16,-15.99999 z M 16,304 c 0,-26.5 21.5,-48 48,-48 h 384 c 26.5,0 48,21.5 48,48 0,26.5 -21.5,48 -48,48 H 64 C 37.5,352 16,330.5 16,304 Z m 16,96 c 0,-8.8 7.2,-16 16,-16 h 416 c 8.8,0 16,7.2 16,16 v 16 c 0,35.3 -28.7,64 -64,64 H 96 C 60.7,480 32,451.3 32,416 Z"
     id="path1"
     sodipodi:nodetypes="sscscsssssssssssssssssssssssssssss" />
  <text
     xml:space="preserve"
     style="fill:#000000"
     x="113.53129"
     y="232.10841"
     id="text1"><tspan
       sodipodi:role="line"
       id="tspan1"></tspan></text>
  <text
     xml:space="preserve"
     id="text2"
     style="font-style:normal;font-variant:normal;font-weight:normal;font-stretch:normal;font-size:133.333px;line-height:0;font-family:'Franklin Gothic Heavy';-inkscape-font-specification:'Franklin Gothic Heavy, ';white-space:pre;shape-inside:url(#rect2);fill:#000000" />
  <text
     xml:space="preserve"
     style="font-style:normal;font-variant:normal;font-weight:normal;font-stretch:normal;font-size:529.603px;line-height:0;font-family:'Franklin Gothic Heavy';-inkscape-font-specification:'Franklin Gothic Heavy, ';fill:#000000;stroke-width:4.6627"
     x="88.435326"
     y="407.24695"
     id="text3"
     transform="scale(0.99959086,1.0004093)"><tspan
       sodipodi:role="line"
       id="tspan3"
       x="88.435326"
       y="407.24695"
       style="font-style:normal;font-variant:normal;font-weight:normal;font-stretch:normal;font-size:529.603px;font-family:Harrington;-inkscape-font-specification:Harrington;fill:#ffffff;stroke-width:4.6627">R</tspan></text>
</svg>
